<?xml version="1.0" encoding="utf-8"?>
<!-- Generator: Adobe Illustrator 19.0.0, SVG Export Plug-In . SVG Version: 6.00 Build 0)  -->
<svg version="1.1" id="Layer_1" xmlns="http://www.w3.org/2000/svg" xmlns:xlink="http://www.w3.org/1999/xlink" x="0px" y="0px"
	 viewBox="0 0 1169.6 281.1" style="enable-background:new 0 0 1169.6 281.1;" xml:space="preserve">
<style type="text/css">
	.st0{fill:#242021;}
	.st1{fill:#FBD008;}
</style>
<g>
	<g>
		<path class="st0" d="M212.2,31.2c9.5-8.5,20.2-13.1,32.1-15.1c16.1-2.6,31.1,0.2,44.3,9.8c16,11.6,25.1,27.7,28.8,46.9
			c4.1,21,1.7,41.3-8.8,60.1c-13.5,24.1-36.7,35.3-65.2,32.5c-7.6-0.7-14.8-2.6-21.6-6.3c-2.6-1.4-5.3-2.6-7-5.3
			c-0.4-0.7-1-1.9-2.1-1.4c-0.9,0.4-0.4,1.5-0.4,2.3c0,16.5-0.1,33,0.1,49.6c0,3.5-0.9,4.3-4.3,4.2c-9.3-0.3-18.7-0.2-28,0
			c-2.2,0-2.8-0.6-2.8-2.8c0.1-61.4,0.1-122.8,0-184.3c0-2.1,0.4-2.9,2.7-2.9c9.8,0.1,19.6,0.1,29.4,0c2.2,0,3,0.5,2.8,2.8
			C212,24.4,212.2,27.5,212.2,31.2z M246.8,133.9c11.1-0.3,20.8-3.6,27.3-13.5c8.7-13.2,10.1-27.6,7.2-42.6
			c-3.3-16.9-13.2-27.5-28.1-30c-15.5-2.6-30.2,3.3-37.2,19.3c-5.7,13.1-6.5,26.6-2.5,40.4c1.5,5.2,3.5,10.4,6.8,14.4
			C227,129.9,235.9,134.3,246.8,133.9z"/>
		<path class="st0" d="M166.4,18.7c-10.1,29.4-20,58.3-29.9,87.2c-8.2,23.9-16.5,47.9-24.7,71.8c-1.7,4.9-3.9,9.5-6.6,13.9
			c-8,12.5-19.8,18.2-34.4,18.7c-9.3,0.3-18.4-0.8-27.2-3.7c-1.9-0.6-2.5-1.5-2.5-3.6c0.1-8.5,0.1-17,0-25.5c0-2.4,0.2-3.1,2.9-2.1
			c7.8,2.8,15.9,4.6,24.3,3c8.4-1.6,12.5-7.9,9.9-16.2c-4.2-13.4-10-26.2-15.1-39.3C56,104.5,48.8,86.4,41.6,68.2
			c-6.1-15.5-12-30.9-18.2-46.3c-1.2-3-0.4-3.2,2.3-3.2c10.4,0.1,20.8,0.2,31.2,0c2.7-0.1,3.6,1,4.4,3.3C72.8,56,84.3,90,95.8,124.1
			c0.3,1,0.7,2,1.1,3.1c1.3-0.3,1.1-1.4,1.4-2.2c10.3-34.2,20.5-68.4,30.7-102.6c0.8-2.7,1.7-3.8,4.8-3.7
			C144.5,18.9,155.2,18.7,166.4,18.7z"/>
		<path class="st1" d="M165.7,254.5c-49.9,0-99.8,0-149.7,0.1c-3.3,0-4.2-0.9-4.1-4.1c0.2-8.1,0.2-16.3,0-24.4
			c0-2.2,0.6-3.1,2.8-2.8c0.7,0.1,1.4,0,2.2,0c99.2,0,198.4,0,297.6,0c5.3,0,4.6-0.5,4.6,4.6c0,7.7-0.1,15.3,0.1,23
			c0.1,3-0.8,3.8-3.8,3.8C265.5,254.5,215.6,254.5,165.7,254.5z"/>
	</g>
	<g>
		<path d="M349.2,178.5c0-0.9,0.4-2.3,1.1-4.2c0.8-1.9,1.7-3.8,2.7-5.7c1.1-1.9,2.1-3.6,3.2-5c1.1-1.4,2.1-2.1,2.9-2.1
			c2.3,0,4.4,0.6,6.1,1.8s3.2,2.8,4.3,4.6c1.1,1.9,2,3.9,2.5,6.1c0.6,2.2,0.9,4.3,0.9,6.1c0,1.4-0.4,3-1.2,4.7
			c-0.8,1.8-1.8,3.4-3.1,4.9c-1.2,1.5-2.6,2.8-4.1,3.9c-1.5,1.1-3,1.6-4.6,1.6c-1.8,0-3.3-0.6-4.6-1.8c-1.3-1.2-2.4-2.7-3.4-4.6
			c-1-1.8-1.7-3.7-2.2-5.6C349.4,181.4,349.2,179.8,349.2,178.5z"/>
		<path d="M381.5,164.1c0-1.2,0.2-2.4,0.7-3.8c0.5-1.3,1.1-2.6,1.9-3.9c0.8-1.2,1.8-2.2,3-3.1c1.2-0.8,2.4-1.2,3.7-1.2
			c0,7.6,1.3,13.6,4,18c2.7,4.4,6.4,7.7,11.1,10.1c4.7,2.3,10.1,3.9,16.2,4.7c6.1,0.8,12.6,1.4,19.6,1.8c2.3-0.1,5.4-0.2,9.2-0.3
			c3.8-0.1,7.5-0.5,11-1.2c3.5-0.8,6.5-2,8.9-3.8s3.6-4.4,3.5-8.1c0-1.6-0.1-3.1-0.2-4.4c-0.1-1.3-0.4-2.4-0.8-3.4
			c-0.4-1-1.1-2-2.1-2.9c-1-0.9-2.4-1.9-4.1-2.8l-52.1-28.4c-1.9-1.1-3.7-2.4-5.4-3.9c-1.8-1.6-3.2-3.3-4.4-5.3
			c-1.2-1.9-2.1-4-2.8-6.1c-0.7-2.2-1.1-4.3-1.1-6.4c0-4.4,1.2-8.1,3.6-10.9c2.4-2.8,5.4-5.1,8.9-6.8c3.6-1.7,7.4-2.9,11.6-3.6
			c4.1-0.7,8-1.1,11.5-1.1c1.6,0,3.7,0.1,6.3,0.4c2.6,0.3,5.3,0.7,8.2,1.3c2.9,0.6,5.8,1.3,8.7,2.3c2.9,0.9,5.4,2.1,7.6,3.6
			c2.2,1.5,4.1,3.2,5.5,5.1c1.5,1.9,2.2,4.2,2.2,6.8c-1.6,0.9-3.3,1.2-5,0.9c-1.7-0.4-3.4-1-5.2-1.9c-1.8-0.9-3.6-2-5.4-3.2
			c-1.9-1.2-3.8-2.3-5.8-3.5c-2-1.2-4.1-2.1-6.3-2.8c-2.2-0.7-4.6-0.9-7-0.7c-2.2,0-5.1,0.1-8.6,0.4c-3.5,0.2-6.9,0.8-10.3,1.7
			s-6.2,2.2-8.6,4c-2.4,1.8-3.6,4.4-3.6,7.6c0,3.2,1.1,6.1,3.3,8.7c2.2,2.6,5.2,5.1,9,7.5c3.8,2.4,8.1,4.7,12.8,6.8
			c4.7,2.2,9.5,4.4,14.4,6.7c4.9,2.3,9.6,4.6,14.2,7.1c4.6,2.5,8.7,5.1,12.1,8.1c3.4,2.9,6.1,6,8.1,9.4c1.9,3.3,2.6,7.1,2,11.3
			c-0.6,4.2-2.4,7.8-5.4,10.9c-3,3-6.9,5.4-11.6,7.1c-4.7,1.7-9.9,2.8-15.6,3.3c-5.7,0.5-11.6,0.5-17.7-0.1
			c-6.1-0.6-12.1-1.7-18.1-3.3c-6-1.6-11.4-3.8-16.3-6.6c-4.9-2.7-9.1-6-12.6-9.6C385,173,382.6,168.8,381.5,164.1z"/>
		<path d="M494.1,156.2c0-5.1,1-10.1,3-15c2-4.9,4.7-9.1,8.2-12.9c3.4-3.7,7.5-6.7,12-8.9c4.6-2.2,9.4-3.3,14.6-3.3
			c2.3,0,4.8,0.3,7.5,0.8c2.6,0.5,5.1,1.4,7.5,2.5c2.3,1.2,4.3,2.7,5.8,4.6c1.5,1.9,2.3,4.4,2.3,7.3c0,0.5-0.1,1.4-0.4,2.8
			c-0.3,1.4-0.7,2.8-1.1,4.2c-0.5,1.4-1,2.7-1.7,3.8c-0.6,1.1-1.2,1.7-1.7,1.7c0-5.5-1.5-10.1-4.6-13.8c-3-3.7-7.5-5.5-13.3-5.5
			c-4.4,0-8.4,0.9-11.9,2.8c-3.5,1.9-6.4,4.3-8.8,7.4c-2.3,3-4.1,6.5-5.3,10.3c-1.2,3.8-1.8,7.7-1.8,11.7c0,5.4,0.9,9.8,2.6,13.3
			c1.8,3.5,4.1,6.3,7.2,8.5c3,2.2,6.5,3.8,10.5,4.8c4,1.1,8.2,1.8,12.6,2.1c4.4,0.4,8.9,0.5,13.3,0.4c4.4-0.1,8.7-0.3,12.8-0.5
			c0.4,0,0.9,0.2,1.8,0.7c0.8,0.5,1.4,0.8,1.8,0.9v0.5c0,0.2,0,0.4,0.1,0.4c0.1,0,0.1,0.1,0.1,0.2c0,1.3-0.6,2.4-1.9,3.3
			c-1.3,0.9-2.9,1.7-4.7,2.3c-1.9,0.6-3.9,1-6.1,1.2c-2.2,0.2-4.4,0.4-6.6,0.6c-2.2,0.2-4.1,0.3-5.7,0.3c-1.6,0-2.8,0-3.5,0
			c-6.8,0-12.9-0.8-18.3-2.3c-5.4-1.5-10.1-3.9-13.9-7.1c-3.8-3.2-6.8-7.3-8.9-12.3C495.1,168.9,494.1,163,494.1,156.2z"/>
		<path d="M590.7,195.4c-2.6-4.7-4.8-9.8-6.7-15.3c-1.9-5.5-3.5-11-4.7-16.7c-1.3-5.6-2.3-11.1-3.1-16.4c-0.8-5.3-1.3-10.1-1.5-14.5
			c0-0.8-0.1-1.7-0.2-2.7c-0.1-1-0.1-2-0.1-3.1c0.1-1.1,0.2-2,0.5-3c0.3-0.9,0.8-1.8,1.5-2.5h0.4c0.1,0,0.2,0,0.2-0.1
			c0-0.1,0.1-0.1,0.2-0.1c0.1,0,0.2,0,0.2,0.1c0,0.1,0.1,0.1,0.4,0.1h0.4c0.2,0.1,0.8,0.4,1.8,0.7c0.9,0.4,1.5,0.6,1.8,0.9
			c2.1-0.7,4.3-1.5,6.5-2.5c2.2-1,4.5-1.9,6.8-2.8c2.3-0.9,4.6-1.6,6.9-2.2c2.3-0.6,4.6-0.9,6.8-0.9c1.6,0,3.1,0.1,4.3,0.2
			c1.2,0.1,2.5,0.3,3.7,0.6c1.2,0.3,2.5,0.6,3.9,1.1c1.4,0.4,3,0.9,4.9,1.5c0.9,0.7,1.8,1.4,2.5,2c0.8,0.6,1.5,1.4,2.1,2.2
			c0.6,0.8,1.1,1.8,1.5,3c0.4,1.2,0.5,2.7,0.5,4.6c-1.9,0.2-4.1,0.1-6.6-0.4c-2.5-0.5-5.1-1.2-7.9-2c-2.7-0.8-5.6-1.5-8.5-2.1
			c-2.9-0.6-5.7-0.8-8.4-0.7c-2.7,0.1-5.2,0.9-7.5,2.3c-2.5,1.2-4.6,3.3-6.5,6.3c-0.8,3.4-1.2,6.7-1.1,10c0.1,3.3,0.5,6.5,1.2,9.6
			c0.7,3.1,1.6,6.2,2.7,9.3c1.1,3.1,2.2,6.2,3.2,9.3c1,3.1,1.9,6.2,2.7,9.2c0.8,3,1.3,6.1,1.6,9.3c0,1.2-0.6,2.4-1.9,3.8
			C593.8,194.7,592.3,195.4,590.7,195.4z"/>
		<path d="M637,165.7c0.1-2,0.7-4.3,1.8-6.8c1.1-2.6,2.7-5.1,4.9-7.5c2.2-2.5,5-4.6,8.4-6.6c3.4-1.9,7.4-3.3,12-4.1
			c4.6-0.8,9.9-0.9,15.8-0.2c5.9,0.7,12.5,2.5,19.7,5.3c0-0.1,0-0.7,0-1.8l-0.2-1.6c0-3-0.9-6.1-2.6-9.3c-1.8-3.2-4-6-6.8-8.5
			c-2.7-2.5-5.7-4.6-8.9-6.1c-3.2-1.6-6.2-2.4-9.1-2.4c-1.2,0-2.2,0.2-3.1,0.5c-0.9,0.4-1.7,0.8-2.5,1.3c-0.8,0.5-1.6,1-2.4,1.4
			c-0.8,0.4-1.7,0.6-2.7,0.6c-0.2,0-0.4-0.1-0.4-0.2c-0.1-0.1-0.2-0.2-0.4-0.4c-0.2-0.2-0.6-0.5-1-0.9c-0.4-0.4-0.6-0.6-0.6-0.7
			c0-2.1,0.4-3.9,1.1-5.4c0.8-1.5,1.8-2.7,3.2-3.7c1.3-0.9,2.9-1.7,4.6-2.2c1.7-0.5,3.5-0.8,5.3-0.8c4.7,0.5,9.1,1.9,13.4,4.3
			c4.3,2.4,8.2,5.4,11.8,9c3.6,3.6,6.7,7.8,9.4,12.5c2.7,4.7,4.9,9.6,6.8,14.7c1.8,5.1,3,10.2,3.6,15.3c0.7,5.4,0.8,10.4,0.2,15.1
			c-0.1,0-0.5,0-1.1-0.1c-0.6-0.1-1.2-0.1-1.9-0.2c-0.7-0.1-1.3-0.1-1.8-0.3l-0.9-0.2c-2.5-5.5-5.2-9.9-8.2-13.3c-3-3.4-6.1-6.1-9-8
			c-3-1.9-5.8-3.3-8.3-4c-2.6-0.8-4.7-1.3-6.3-1.7c-1.8,0-3.8,0.1-6.2,0.4c-2.4,0.2-4.9,0.6-7.5,1.2c-2.6,0.6-5.2,1.4-7.8,2.4
			c-2.6,1-5,2.2-7,3.6c-2,1.4-3.7,3.1-4.9,5c-1.2,1.9-1.8,4.2-1.8,6.8c0,2.8,1.1,5.2,3.3,7.1c2.2,1.9,4.9,3.5,8.1,4.7
			c3.2,1.2,6.4,2.1,9.6,2.5c3.3,0.5,5.9,0.7,7.9,0.7c3.3,0,6.5-0.2,9.6-0.5c3.2-0.4,6.3-0.8,9.4-1.2c3.1-0.5,6.2-0.9,9.2-1.2
			c3-0.4,6.1-0.5,9.1-0.5c0.2,0,0.6,0,1.2,0c0.6,0,1.2,0,1.8,0.1c0.6,0.1,1.2,0.1,1.8,0.1c0.5,0,0.9,0,1.1,0
			c0.9,0.4,1.5,0.9,1.6,1.6c0.1,0.7,0.2,1.4,0.2,2.1c0,0.7-0.7,1.5-2.2,2.3c-1.5,0.8-3.4,1.6-5.7,2.5c-2.3,0.8-4.9,1.7-7.8,2.5
			c-2.9,0.9-5.6,1.6-8.2,2.2c-2.6,0.6-5.1,1.1-7.4,1.5c-2.3,0.4-3.9,0.6-4.8,0.6c-4.9,0-10.1-0.4-15.6-1.2
			c-5.5-0.8-10.5-2.3-15.1-4.5c-4.6-2.2-8.3-5.2-11.3-9C638.5,176.8,637,171.8,637,165.7z"/>
		<path d="M727.8,172.4c0-7.4,1.3-13.6,3.9-18.6c2.6-5,6-9.1,10.3-12.1c4.3-3,9.2-5.3,14.9-6.7c5.7-1.4,11.6-2.1,17.8-2.1
			c5,0,9.9,0.8,14.6,2.5c4.7,1.6,9,3.9,12.7,6.8c3.7,2.9,6.7,6.5,8.9,10.7c2.2,4.2,3.3,9,3.3,14.4c0,4.7-0.9,8.5-2.6,11.5
			s-4.2,5.3-7.2,7c-3,1.7-6.4,2.9-10.1,3.6c-3.7,0.7-7.5,1.1-11.3,1.1c-3.7,0-7.6-0.2-11.5-0.5c-3.9-0.4-7.5-1.2-10.8-2.5
			c-3.3-1.3-6-3.2-8.1-5.8c-2.1-2.6-3.2-6.2-3.2-10.9c2.5,0,4.8,0.5,7.1,1.5c2.3,1,4.6,2,6.9,3.2c2.3,1.1,4.7,2.1,7,3.1
			c2.2,1.1,4.6,1.6,7.2,1.6c1.9,0,4.4-0.2,7.5-0.5c3.1-0.4,6-1,8.8-2c2.7-1,5.1-2.4,7.1-4.1c2-1.8,3-4,3-6.7c0-4-0.9-7.4-2.6-10.3
			c-1.8-2.9-4-5.3-6.8-7.3c-2.8-1.9-6-3.4-9.5-4.5c-3.5-1.1-7-1.6-10.5-1.6c-0.5,0-1.6,0.1-3.4,0.4c-1.8,0.2-3.9,0.6-6.2,1.1
			c-2.3,0.5-4.8,1.2-7.4,1.9c-2.6,0.8-4.9,1.7-7.1,2.8c-2.2,1.1-3.9,2.4-5.3,3.8c-1.4,1.4-2.1,3-2.1,4.7v2.1c0.1,1.3,0.3,3,0.4,5.2
			c0.2,2.2,0.3,4.3,0.4,6.5c0.1,2.2,0.3,4.1,0.5,5.7c0.2,1.6,0.4,2.6,0.4,2.8c0.2,1.9,0.6,4.8,1.2,8.7c0.6,3.9,1.2,8.3,1.9,13.2
			c0.7,4.9,1.5,10,2.4,15.3c0.9,5.4,1.7,10.5,2.5,15.3c0.8,4.9,1.5,9.2,2.2,13.1c0.6,3.9,1.1,6.7,1.5,8.4c0,0.2,0,0.4,0.1,0.6
			c0.1,0.2,0.1,0.4,0.1,0.6l-0.2,0.4v0.4c-0.2,0.4-0.8,0.9-1.6,1.8c-0.9,0.7-1.5,1.2-1.8,1.4h-1.1c-1.2,0-2.4-1.1-3.7-3.2
			c-1.3-2.2-2.6-5.1-3.9-8.8c-1.3-3.7-2.7-7.9-4-12.7c-1.3-4.8-2.7-9.8-3.9-14.9c-1.3-5.1-2.5-10.2-3.5-15.3c-1.1-5-2-9.7-2.8-14
			c-0.8-4.3-1.4-8.1-1.8-11.2C728,175.9,727.8,173.7,727.8,172.4z"/>
		<path d="M821.3,148.4c0-6.1,0.9-11.9,2.7-17.5c1.8-5.6,4.4-10.4,7.9-14.6c3.4-4.2,7.7-7.6,12.6-10.1c5-2.5,10.7-3.8,17.3-3.8
			c3.9,0.5,7.2,1.5,10.1,3.2c2.9,1.6,5.2,3.7,7,6.1c1.8,2.4,3.1,5.2,3.9,8.3c0.7,3,1.1,6.3,1.1,9.8c0,4.2-1.2,8-3.7,11.4
			c-2.5,3.4-5.6,6.2-9.3,8.5c-3.7,2.3-7.8,4-12.1,5.3c-4.3,1.2-8.4,1.8-12.1,1.8c-1.4,0-2.8,0-4.3,0c-1.5,0-2.8-0.2-3.9-0.7
			c-1.2-0.5-2.1-1.2-2.8-2.1c-0.7-0.9-1.1-2.3-1.1-4.2c0-0.6,0.1-1.1,0.3-1.5c0.2-0.4,0.7-0.7,1.5-0.9c0.8-0.2,2-0.2,3.7-0.1
			c1.6,0.2,3.9,0.6,6.7,1.1c1.6,0,4-0.6,7.1-1.7c3.1-1.1,6.3-2.5,9.5-4.3c3.2-1.8,6-3.8,8.3-6.1c2.3-2.3,3.5-4.5,3.5-6.8
			c0-2.3-0.4-4.6-1.1-6.9c-0.8-2.3-1.9-4.3-3.4-6.1c-1.5-1.8-3.3-3.2-5.3-4.2c-2-1.1-4.4-1.5-6.9-1.2c-4.1,0.4-7.8,1.5-11.1,3.3
			c-3.3,1.9-6.2,4.3-8.5,7.3c-2.3,3-4.2,6.3-5.4,9.9c-1.3,3.6-1.9,7.4-1.9,11.4c0,3,0.1,6.1,0.2,9.1c0.1,3,0.6,6,1.3,8.9
			c0.8,2.9,2,5.7,3.7,8.4c1.7,2.7,4.1,5.1,7.4,7.1c3.2,2,7.3,3.7,12.2,5.1c4.9,1.3,11,2.2,18.2,2.5l31.4-2.1
			c-1.9,2.6-4.2,4.7-7.1,6.3c-2.9,1.6-5.9,3-9.1,3.9c-3.2,1-6.4,1.7-9.6,2.2c-3.2,0.5-6.1,0.7-8.9,0.7c-6.8,0-13.2-1.1-19.1-3.3
			c-6-2.2-11.2-5.3-15.8-9.4c-4.6-4-8.2-8.9-10.8-14.7C822.6,162.1,821.3,155.6,821.3,148.4z"/>
		<path d="M914.1,161c0-3.7,0.9-8.1,2.6-13.2c1.8-5,4.1-10.1,7.2-15.3c3-5.2,6.5-10.3,10.5-15.3c4-5,8.1-9.4,12.5-13.3
			c4.3-3.9,8.7-7.1,13.2-9.6c4.7-2.3,9-3.5,13-3.5c1.1,0,2.2,0.2,3.3,0.7c1.2,0.5,2.2,1.1,3.2,1.9c1,0.8,1.8,1.7,2.5,2.7
			c0.7,1,1.1,2,1.1,3.1c0,0.9-0.2,2-0.5,3.3c-0.4,1.3-1.1,1.9-2.3,1.9c-0.8,0-1.5-0.2-2.1-0.5c-0.6-0.4-1.2-0.8-1.8-1.2
			c-0.6-0.5-1.3-0.9-1.9-1.2c-0.6-0.4-1.4-0.5-2.2-0.5c-4,0-8,1.1-11.9,3.2c-4,2.1-7.8,4.9-11.4,8.4c-3.6,3.5-7,7.5-10,12
			c-3,4.5-5.7,9.1-7.9,13.9c-2.2,4.7-4,9.4-5.3,13.9c-1.3,4.5-1.9,8.5-1.9,12c0,5.6,1,10.2,2.9,13.8c1.9,3.6,4.5,6.4,7.8,8.5
			c3.3,2.1,7,3.7,11.3,4.6c4.3,1,8.8,1.8,13.6,2.4c0.9,0.4,1.5,0.8,1.6,1.4c0.1,0.6,0.2,1.2,0.2,1.9c0,1.6-0.6,2.8-1.8,3.6
			c-1.2,0.8-2.6,1.3-4.1,1.5c-1.5,0.2-3.1,0.3-4.7,0.3c-1.6-0.1-2.9-0.1-3.7-0.1c-5.5,0-10.3-1.2-14.5-3.7
			c-4.2-2.5-7.6-5.6-10.3-9.6c-2.7-3.9-4.7-8.3-6-13.2C914.8,170.8,914.1,165.9,914.1,161z"/>
		<path d="M989,157.8c0-4.9,0.7-9.5,2.2-14c1.4-4.4,3.6-8.3,6.3-11.7c2.8-3.4,6.1-6.1,10.1-8.1c4-2,8.6-3,13.8-3
			c3.1,0.4,5.8,1.2,8.1,2.5c2.3,1.3,4.2,2.9,5.6,4.8c1.4,1.9,2.5,4.1,3.2,6.7c0.6,2.4,0.8,5.1,0.8,7.9c0,3.4-1,6.4-2.9,9.1
			c-2,2.7-4.4,5-7.4,6.8c-3,1.8-6.2,3.2-9.7,4.2c-3.5,1-6.7,1.5-9.7,1.5c-1.1,0-2.3,0-3.4,0c-1.2,0-2.2-0.2-3.2-0.6
			c-0.9-0.4-1.7-0.9-2.2-1.7c-0.6-0.7-0.8-1.9-0.8-3.4c0-0.5,0.1-0.9,0.2-1.2c0.1-0.3,0.5-0.6,1.2-0.7c0.7-0.1,1.6-0.2,2.9-0.1
			c1.3,0.2,3.1,0.5,5.3,0.8c1.3,0,3.2-0.4,5.7-1.3c2.5-0.9,5-2,7.6-3.4c2.6-1.4,4.8-3,6.7-4.8c1.9-1.8,2.8-3.6,2.8-5.4
			c0-1.9-0.3-3.7-0.9-5.5c-0.6-1.8-1.5-3.4-2.7-4.8c-1.2-1.4-2.6-2.5-4.3-3.4c-1.6-0.8-3.5-1.2-5.5-1c-3.3,0.3-6.2,1.2-8.9,2.7
			c-2.7,1.5-4.9,3.4-6.8,5.8c-1.9,2.4-3.3,5-4.3,7.9c-1,2.9-1.5,5.9-1.5,9.1c0,2.4,0,4.9,0.1,7.3c0.1,2.4,0.4,4.8,1.1,7.2
			c0.6,2.3,1.6,4.6,2.9,6.7c1.4,2.2,3.3,4,5.9,5.7c2.6,1.6,5.8,3,9.8,4.1c3.9,1.1,8.8,1.8,14.6,2l25.1-1.7c-1.5,2.1-3.4,3.7-5.7,5.1
			c-2.3,1.3-4.7,2.4-7.3,3.2c-2.6,0.8-5.1,1.4-7.6,1.8c-2.5,0.4-4.9,0.6-7.2,0.6c-5.4,0-10.5-0.9-15.3-2.7c-4.8-1.8-9-4.3-12.6-7.5
			c-3.6-3.2-6.5-7.2-8.6-11.8S989,163.6,989,157.8z"/>
		<path d="M1062,198.9c0-0.9,0.9-2.3,2.7-4.2c1.8-1.9,4.1-4.2,6.9-6.9c2.8-2.7,5.8-5.8,9-9.2c3.2-3.4,6.2-7.1,8.9-11
			c2.7-4,5.1-8.2,6.9-12.5c1.9-4.4,2.8-8.9,2.8-13.6c0-4.4-0.6-8.7-1.9-12.6c-1.3-4-3-7.8-5.2-11.5c-2.2-3.7-4.7-7.1-7.5-10.3
			c-2.9-3.2-5.9-6.2-9-9c-0.8,0.5-1.6,0.6-2.5,0.4c-0.8-0.2-1.6-0.6-2.2-1.2c-0.6-0.6-1.2-1.3-1.7-2c-0.5-0.8-0.7-1.5-0.7-2.4
			c0-1.8,0.5-2.8,1.6-3.1c1.1-0.3,2.3-0.4,3.9-0.4c3.5,0,6.8,0.8,9.9,2.5c3.1,1.7,6,3.9,8.6,6.8c2.6,2.8,5,6,7.1,9.6
			c2.1,3.6,3.9,7.3,5.3,11c1.5,3.7,2.6,7.4,3.3,11c0.8,3.6,1.1,6.8,1.1,9.6c0,2.8-0.6,6.4-1.9,10.7c-1.3,4.3-3,8.9-5.3,13.8
			c-2.2,4.9-4.8,9.8-7.6,14.7c-2.9,5-5.9,9.4-9.1,13.3c-3.2,3.9-6.5,7.1-9.8,9.6c-3.3,2.5-6.5,3.7-9.4,3.7c-0.7,0-1.3-0.2-1.8-0.7
			c-0.5-0.5-1-1.1-1.4-1.8c-0.4-0.7-0.7-1.5-0.9-2.3C1062.1,200,1062,199.3,1062,198.9z"/>
	</g>
</g>
</svg>
